<svg xmlns="http://www.w3.org/2000/svg" viewBox="0 0 1440 320" preserveAspectRatio="none">
  <rect width="1440" height="320" fill="#e7f0f7" />
  <path fill="#ffffff" fill-opacity="0.6" d="M0,160L48,154.7C96,149,192,139,288,149.3C384,160,480,192,576,186.7C672,181,768,139,864,133.3C960,128,1056,160,1152,160C1248,160,1344,128,1392,112L1440,96L1440,320L1392,320C1344,320,1248,320,1152,320C1056,320,960,320,864,320C768,320,672,320,576,320C480,320,384,320,288,320C192,320,96,320,48,320L0,320Z"></path>
  <path fill="#1a73b5" fill-opacity="0.05" d="M0,64L48,80C96,96,192,128,288,128C384,128,480,96,576,96C672,96,768,128,864,144C960,160,1056,160,1152,138.7C1248,117,1344,75,1392,53.3L1440,32L1440,320L1392,320C1344,320,1248,320,1152,320C1056,320,960,320,864,320C768,320,672,320,576,320C480,320,384,320,288,320C192,320,96,320,48,320L0,320Z"></path>
</svg>
